<?xml version="1.0" standalone="no"?>
<!DOCTYPE svg PUBLIC "-//W3C//DTD SVG 20010904//EN"
 "http://www.w3.org/TR/2001/REC-SVG-20010904/DTD/svg10.dtd">
<svg version="1.0" xmlns="http://www.w3.org/2000/svg"
 width="2358.000000pt" height="1420.000000pt" viewBox="0 0 2358.000000 1420.000000"
 preserveAspectRatio="xMidYMid meet">

<g transform="translate(0.000000,1420.000000) scale(0.100000,-0.100000)"
fill="#000000" stroke="none">
<path d="M8760 10718 c-233 -22 -469 -87 -679 -188 -574 -277 -933 -778 -1026
-1431 -20 -139 -19 -436 1 -581 75 -548 366 -1024 799 -1307 333 -217 701
-321 1137 -321 355 0 640 62 922 199 312 152 538 352 726 642 373 577 408
1399 84 2009 -189 355 -459 615 -819 790 -334 162 -730 227 -1145 188z m397
-719 c511 -68 819 -413 884 -989 15 -132 7 -405 -16 -520 -53 -272 -154 -471
-318 -626 -170 -160 -376 -239 -658 -251 -454 -19 -789 158 -972 515 -53 103
-100 246 -124 375 -24 129 -24 476 -1 602 87 462 325 752 707 860 148 43 340
56 498 34z"/>
<path d="M3840 8810 l0 -1880 833 0 c866 0 953 3 1132 44 504 116 847 437 931
871 25 129 23 314 -5 430 -67 277 -270 469 -606 570 l-90 28 101 47 c245 114
394 256 475 450 92 219 71 541 -52 780 -157 305 -528 489 -1069 530 -74 5
-476 10 -892 10 l-758 0 0 -1880z m1666 1198 c179 -54 263 -160 283 -357 22
-210 -32 -368 -153 -446 -122 -78 -233 -95 -617 -95 l-299 0 0 461 0 461 368
-5 c293 -3 377 -7 418 -19z m32 -1504 c163 -33 266 -103 318 -219 24 -51 28
-77 32 -172 10 -249 -69 -392 -260 -477 -93 -41 -151 -46 -540 -46 l-368 0 0
465 0 465 370 0 c297 0 386 -3 448 -16z"/>
<path d="M14597 10683 c-12 -11 -8 -2226 3 -2369 44 -539 281 -944 703 -1198
159 -95 336 -161 540 -198 105 -20 155 -23 367 -23 212 0 262 3 367 23 640
118 1081 541 1212 1162 39 185 42 307 39 1480 l-3 1125 -435 0 -435 0 -5
-1220 -5 -1220 -23 -80 c-12 -44 -43 -123 -69 -175 -38 -79 -60 -109 -127
-176 -135 -134 -260 -183 -482 -191 -166 -7 -255 10 -379 71 -190 94 -296 234
-368 486 -22 74 -22 86 -27 1290 l-5 1215 -431 3 c-237 1 -434 -1 -437 -5z"/>
<path d="M11367 10674 c-4 -4 -7 -850 -7 -1881 l0 -1873 1545 0 1545 0 -48 78
c-27 42 -212 345 -412 672 -348 569 -368 599 -449 680 -48 47 -107 96 -133
110 -46 24 -61 40 -37 40 6 0 44 16 86 35 227 105 431 301 540 520 34 67 75
190 95 280 21 100 16 381 -10 492 -71 309 -241 520 -538 666 -159 79 -321 125
-564 159 -133 19 -203 21 -875 25 -402 3 -733 1 -738 -3z m1487 -115 c152 -30
346 -116 346 -153 0 -18 -1526 -1536 -1544 -1536 -33 0 -104 147 -148 308 -19
66 -22 105 -22 272 -1 173 2 204 22 278 89 325 300 585 591 731 241 122 482
153 755 100z m742 -537 c15 -9 61 -101 91 -182 87 -230 89 -531 6 -763 -201
-564 -804 -879 -1383 -722 -117 32 -264 102 -269 129 -2 14 200 222 760 782
420 420 768 764 774 764 5 0 15 -4 21 -8z"/>
<path d="M12505 10509 c-491 -45 -899 -447 -954 -941 -19 -172 15 -394 84
-545 13 -29 28 -53 32 -53 4 0 330 322 723 715 l714 714 -54 24 c-169 75 -353
104 -545 86z"/>
<path d="M12845 9215 l-720 -713 55 -26 c140 -64 378 -105 525 -91 444 43 819
349 939 767 67 234 55 468 -36 701 -17 42 -34 77 -37 77 -3 -1 -330 -322 -726
-715z"/>
<path d="M18480 8800 l0 -1880 440 0 440 0 0 1880 0 1880 -440 0 -440 0 0
-1880z"/>
<path d="M7155 6140 c-124 -26 -202 -75 -331 -204 -157 -158 -268 -339 -404
-661 -81 -190 -124 -280 -140 -290 -11 -7 -48 15 -170 98 -38 27 -103 60 -142
75 -67 24 -86 26 -228 27 -136 0 -163 -3 -220 -23 -155 -54 -306 -218 -370
-403 -16 -45 -35 -88 -42 -94 -28 -27 -319 -226 -408 -280 -438 -266 -630
-239 -576 82 9 51 23 107 31 123 19 37 42 38 140 10 132 -38 232 -21 352 60
71 47 181 155 239 233 78 105 82 172 15 249 -76 86 -199 127 -323 107 -125
-20 -311 -111 -427 -209 -166 -140 -312 -441 -311 -643 1 -111 43 -240 107
-324 57 -74 194 -133 310 -133 144 0 426 125 759 336 55 35 103 64 106 64 3 0
10 -19 17 -42 44 -147 241 -227 428 -173 82 23 259 118 429 230 179 118 203
130 209 113 3 -7 9 -61 14 -119 11 -133 45 -205 135 -294 88 -86 140 -110 241
-109 161 1 354 103 561 296 34 32 64 58 68 58 3 0 6 -20 6 -45 0 -110 76 -222
188 -277 63 -31 72 -33 177 -33 98 1 120 4 205 34 60 20 159 70 267 132 l171
99 94 -41 c192 -85 265 -99 389 -75 75 14 219 65 297 105 l41 21 10 -38 c28
-104 128 -193 255 -227 147 -40 458 -1 794 100 398 118 892 323 1215 503 82
45 150 82 153 82 2 0 -13 -26 -33 -57 -88 -139 -133 -294 -114 -399 23 -122
108 -189 256 -200 66 -5 99 -2 187 20 185 44 400 138 566 246 51 33 97 60 103
60 5 0 9 -47 9 -109 0 -119 10 -162 48 -203 73 -79 281 -77 524 6 179 61 391
161 535 253 29 18 54 33 56 33 2 0 7 -29 9 -65 15 -182 207 -310 436 -289 205
18 506 146 791 337 91 61 103 66 98 45 -38 -152 6 -308 99 -353 126 -60 375
-7 680 144 168 84 341 193 461 292 40 32 74 59 76 59 2 0 -5 -35 -16 -77 -17
-66 -18 -86 -9 -131 26 -123 96 -223 194 -278 48 -26 62 -29 143 -29 70 0 103
5 149 23 70 27 200 110 271 173 84 74 86 75 83 48 -2 -18 2 -23 22 -24 19 0
25 -7 31 -33 14 -69 125 -142 216 -142 73 0 123 32 534 350 68 52 138 105 156
118 l33 23 0 -65 c0 -142 45 -251 147 -354 103 -104 219 -141 352 -112 81 17
243 100 341 174 97 73 268 242 335 331 127 169 127 271 1 270 -76 -1 -126 -35
-263 -181 -201 -215 -381 -344 -477 -344 -87 0 -122 75 -157 339 -30 231 -59
280 -159 268 -86 -10 -208 -81 -500 -293 -116 -84 -235 -154 -263 -154 -26 0
-19 18 79 215 46 94 84 180 84 191 0 45 -78 113 -138 123 -32 6 -36 10 -49 60
-30 118 -102 214 -205 275 -57 33 -176 59 -245 54 -122 -10 -278 -131 -427
-331 -77 -103 -79 -105 -112 -100 -53 9 -140 -41 -304 -173 -80 -64 -172 -136
-206 -160 -227 -162 -624 -362 -679 -340 -22 8 -16 40 25 140 52 125 131 249
255 404 65 80 42 160 -51 178 -51 9 -93 -2 -159 -43 -42 -26 -71 -37 -100 -38
-53 -1 -161 -67 -335 -207 -176 -141 -354 -256 -519 -337 -209 -102 -350 -134
-401 -93 -22 18 -23 21 -11 68 15 59 83 196 179 359 l71 120 251 0 252 0 19
24 c44 54 -13 127 -131 166 -155 52 -152 99 9 153 81 28 111 54 111 100 0 81
-89 150 -177 138 -60 -8 -100 -32 -258 -155 -71 -56 -155 -114 -185 -129 -52
-26 -64 -27 -233 -32 -197 -6 -197 -6 -197 -71 0 -46 33 -84 114 -130 l59 -33
-36 -31 c-108 -93 -531 -353 -742 -455 -219 -106 -292 -123 -305 -70 -18 69
59 199 205 346 88 88 112 107 196 147 129 63 147 101 83 177 -77 91 -189 91
-310 0 -29 -22 -63 -40 -74 -40 -13 0 -55 32 -109 84 -144 139 -260 183 -456
173 -60 -4 -139 -13 -175 -22 -85 -22 -289 -122 -365 -180 l-60 -46 -10 35
c-15 52 -42 76 -85 76 -59 0 -157 -35 -255 -91 -165 -94 -628 -324 -806 -402
-409 -176 -787 -277 -1041 -277 -104 0 -138 19 -138 76 0 52 46 154 89 199 51
53 91 113 91 138 0 24 85 130 171 214 55 53 210 175 216 169 1 -1 7 -32 13
-70 19 -122 71 -194 170 -240 35 -16 66 -20 135 -21 80 0 97 3 155 31 90 42
134 84 172 162 29 58 33 75 32 142 -3 171 -91 274 -270 316 -149 34 -375 -19
-569 -134 -153 -91 -385 -324 -525 -528 -34 -49 -151 -133 -290 -207 -213
-113 -393 -132 -416 -42 -11 44 5 91 63 181 71 112 102 187 103 242 0 37 -6
50 -34 78 -46 46 -94 46 -159 3 -61 -40 -135 -123 -160 -179 -44 -100 -55
-116 -130 -182 -196 -172 -462 -340 -575 -361 -20 -4 -47 -1 -67 7 -73 31 -55
135 61 358 129 247 156 305 161 348 6 39 3 43 -46 91 -75 72 -117 65 -207 -34
-27 -29 -76 -69 -109 -87 -43 -25 -128 -103 -295 -271 -242 -244 -322 -311
-425 -360 -93 -45 -142 -35 -178 36 -76 151 -30 571 75 682 12 13 67 38 130
59 225 75 430 195 649 380 179 151 209 204 209 366 0 209 -66 335 -201 384
-53 19 -169 26 -224 14z m143 -264 c36 -39 42 -51 42 -88 0 -85 -95 -195 -310
-357 -89 -67 -312 -201 -335 -201 -2 0 12 35 30 78 116 267 339 569 455 615
33 13 76 -4 118 -47z m2978 -834 c22 -14 36 -55 30 -85 -9 -46 -33 -67 -77
-67 -42 0 -69 26 -69 68 0 14 -13 36 -30 52 -16 15 -26 30 -23 34 9 8 156 7
169 -2z m6798 -31 c38 -32 76 -104 76 -143 0 -57 -31 -73 -140 -73 -145 1
-185 44 -121 131 33 45 89 99 111 107 20 7 51 -2 74 -22z m-12430 -13 c-104
-126 -216 -201 -273 -183 -38 12 -35 38 9 77 51 45 214 128 254 128 29 0 29 0
10 -22z m1264 -76 c69 -33 122 -92 122 -133 0 -17 -7 -46 -16 -65 -51 -106
-411 -353 -542 -371 -31 -4 -44 0 -67 20 -26 22 -30 32 -33 93 l-4 69 42 45
c76 80 100 120 100 162 0 22 -4 48 -10 58 -8 15 -1 25 36 60 106 98 250 122
372 62z m6550 -100 c47 -25 102 -93 102 -128 0 -50 -142 -140 -460 -293 -266
-127 -413 -178 -477 -166 -44 8 -43 34 0 128 91 196 296 381 498 451 103 35
103 35 204 32 70 -2 100 -7 133 -24z m4318 -226 c43 -19 118 -45 167 -58 48
-12 87 -26 87 -29 0 -15 -304 -276 -362 -311 -34 -21 -65 -38 -70 -38 -4 0
-17 9 -28 20 -17 17 -20 33 -20 108 0 160 69 342 130 342 9 0 52 -15 96 -34z"/>
<path d="M15610 5389 c-78 -32 -160 -139 -160 -209 0 -49 29 -96 68 -111 63
-24 198 80 222 172 27 98 -47 182 -130 148z"/>
</g>
</svg>
